<svg width="110" height="35" fill="none" xmlns="http://www.w3.org/2000/svg"><path d="M108.205 3.902c-2.33 0-4.285 1.205-5.223 2.678h-.321l-1.447-2.598h-1.5v16.954h3.322v-8.222c0-3.214 2.009-5.116 5.437-5.116h.777V3.982a6.857 6.857 0 00-1.045-.08zM93.045 6.58h-.322c-1.232-1.66-3.589-2.92-5.893-2.92-4.66 0-8.678 3.858-8.678 8.813 0 4.794 3.857 8.812 8.678 8.812 2.465 0 4.661-1.232 5.813-3.16v2.812h3.321V3.982h-1.5l-1.42 2.598zm-6 11.464a5.55 5.55 0 01-5.572-5.571 5.567 5.567 0 015.572-5.571 5.573 5.573 0 015.598 5.57 5.557 5.557 0 01-5.598 5.572zM66.982 3.66c-4.875 0-8.625 3.965-8.625 8.786 0 4.982 3.83 8.839 8.92 8.839 2.946 0 5.437-1.26 7.42-3.777L72.07 15.5c-1.098 1.5-2.866 2.518-4.794 2.518-2.572 0-4.956-1.821-5.411-4.339h13.58v-1.232c-.027-5.009-3.67-8.785-8.464-8.785zm-5.09 7.125c.563-2.49 2.786-3.964 5.117-3.964 2.384 0 4.285 1.5 4.794 3.964h-9.91zM42.634 17.99a5.515 5.515 0 01-5.544-5.517c0-3.054 2.357-5.518 5.544-5.518 1.527 0 2.706.643 3.67 1.5l2.518-2.277c-1.5-1.526-3.697-2.517-6.161-2.517-4.795 0-8.893 3.964-8.893 8.812 0 4.901 3.991 8.812 8.893 8.812 3.268 0 5.759-1.5 7.312-3.964l-2.785-1.741c-1.072 1.42-2.545 2.41-4.554 2.41zm9.429-14.812v17.759h3.32V.5h-.4l-2.92 2.678zM12.178.527L10.197 9.9 8.08 11.642 6.098 20.91H9.58L13.92.527h-1.742zm5.599 0l-.804 3.723-2.09 1.74-3.214 14.92h1.742l.803-3.723 2.116-1.741L19.518.526h-1.741zM6.607.526L3.393 15.552 1.277 17.32.5 20.91h3.482L8.348.525h-1.74zm20.599.001l-4.34 20.383h1.715l3.214-15.026 2.116-1.741.777-3.616h-3.482zm-2.116 0h-3.483L17.268 20.91h1.741l2.01-9.375 2.115-1.74L25.09.526zM41 32.293c-.509.643-1.312.964-2.303.964-1.768 0-2.974-1.232-2.974-3.08 0-1.821 1.206-3.053 2.974-3.053 1.178 0 1.82.562 2.17 1.017l.026.054h.348l-.134-1.768-.053-.027c-.59-.455-1.5-.723-2.438-.723-2.625 0-4.527 1.902-4.527 4.527s1.902 4.553 4.527 4.553c1.018 0 1.982-.294 2.572-.75l.026-.027.161-1.687H41zm5.678-6.643c-2.651 0-4.473 1.849-4.473 4.527 0 2.625 1.875 4.553 4.473 4.553 2.599 0 4.5-1.901 4.5-4.553 0-2.651-1.848-4.526-4.5-4.526zm2.893 4.527c0 1.848-1.152 3.08-2.866 3.08-1.714 0-2.866-1.232-2.866-3.08 0-1.821 1.152-3.053 2.866-3.053 1.714 0 2.866 1.205 2.866 3.053zm8.009-4.446c-.107-.054-.268-.08-.482-.08a3.17 3.17 0 00-2.759 1.58l-.375-1.473H52.92v8.839h1.608v-4.795c0-1.553.964-2.598 2.383-2.598.268 0 .536.027.724.08l.16.054-.133-1.58-.08-.027zm6.295 0c-.107-.054-.268-.08-.482-.08a3.17 3.17 0 00-2.759 1.58l-.375-1.473h-1.045v8.839h1.608v-4.795c0-1.553.964-2.598 2.383-2.598.268 0 .536.027.724.08l.16.054-.134-1.58-.08-.027zm4.902-.081c-2.464 0-4.313 1.956-4.313 4.554 0 2.705 1.875 4.526 4.661 4.526 1.205 0 2.438-.374 3.134-.937l.027-.027.268-1.633h-.349l-.026.026c-.697.697-1.822 1.098-2.974 1.098-1.767 0-2.866-.883-3.107-2.49h6.697v-.108c.026-.24.026-.428.026-.642 0-2.599-1.633-4.366-4.044-4.366zm-.027 1.474c1.42 0 2.384.91 2.491 2.33h-5.116c.241-1.42 1.286-2.33 2.625-2.33zm9.857 5.973c-.16.134-.455.214-.803.214-.938 0-1.393-.482-1.393-1.5v-4.66h2.464v-1.366h-2.438V23.99l-3.187 2.84v.32h1.58v4.795c0 1.74 1.045 2.785 2.76 2.785.401 0 .91-.08 1.151-.24l.054-.027.16-1.366h-.348zm5.572-7.447c-2.652 0-4.473 1.849-4.473 4.527 0 2.625 1.875 4.553 4.473 4.553s4.5-1.901 4.5-4.553c0-2.651-1.848-4.526-4.5-4.526zm2.866 4.527c0 1.848-1.152 3.08-2.866 3.08-1.715 0-2.866-1.232-2.866-3.08 0-1.821 1.151-3.053 2.866-3.053 1.74 0 2.866 1.205 2.866 3.053zm8.009-4.446a1.204 1.204 0 00-.482-.08 3.17 3.17 0 00-2.76 1.58l-.374-1.473h-1.045v8.839H92v-4.795c0-1.553.965-2.598 2.384-2.598.268 0 .536.027.723.08l.161.054-.134-1.58-.08-.027zm4.286-.081c-1.126 0-2.224.349-2.76.697l-.053.027-.214 1.553h.348l.027-.026c.696-.536 1.5-.777 2.544-.777 1.447 0 2.224.643 2.224 1.848v.455a7.523 7.523 0 00-1.661-.187c-2.545 0-3.964 1.018-3.964 2.866 0 1.553 1.232 2.651 3 2.651 1.178 0 2.223-.562 2.812-1.553l.375 1.446h1.018v-5.758c0-2.036-1.393-3.241-3.697-3.241zm.428 4.929c.536 0 1.098.08 1.661.214 0 1.527-.938 2.491-2.33 2.491-1.045 0-1.715-.509-1.715-1.285 0-.938.804-1.42 2.384-1.42z" fill="#0500F5"/></svg>